<svg width="53" height="53" viewBox="0 0 53 53" fill="none" xmlns="http://www.w3.org/2000/svg">
<g clip-path="url(#clip0_296_774)">
<path d="M26.4881 12.8953C34.0122 12.8953 40.0812 18.9643 40.0812 26.4884C40.0812 34.0125 34.0122 40.0814 26.4881 40.0814C18.964 40.0814 12.895 34.0125 12.895 26.4884C12.895 18.9643 18.964 12.8953 26.4881 12.8953ZM26.4881 35.3256C31.3504 35.3256 35.3254 31.3625 35.3254 26.4884C35.3254 21.6143 31.3622 17.6511 26.4881 17.6511C21.614 17.6511 17.6508 21.6143 17.6508 26.4884C17.6508 31.3625 21.6258 35.3256 26.4881 35.3256ZM9.16844 12.3393C9.16844 14.102 10.5881 15.5098 12.339 15.5098C14.1017 15.5098 15.5095 14.0902 15.5095 12.3393C15.5095 10.5884 14.0899 9.16872 12.339 9.16872C10.5881 9.16872 9.16844 10.5884 9.16844 12.3393ZM0.165543 15.5571C0.366657 11.31 1.33675 7.54796 4.44813 4.44841C7.54768 1.34886 11.3097 0.378767 15.5568 0.16582C19.9341 -0.0826172 33.0539 -0.0826172 37.4312 0.16582C41.6664 0.366936 45.4285 1.33703 48.5399 4.43658C51.6513 7.53613 52.6095 11.2982 52.8225 15.5453C53.0709 19.9225 53.0709 33.0424 52.8225 37.4196C52.6213 41.6667 51.6513 45.4288 48.5399 48.5283C45.4285 51.6279 41.6783 52.598 37.4312 52.8109C33.0539 53.0593 19.9341 53.0593 15.5568 52.8109C11.3097 52.6098 7.54768 51.6397 4.44813 48.5283C1.34858 45.4288 0.378487 41.6667 0.165543 37.4196C-0.0828972 33.0424 -0.0828972 19.9343 0.165543 15.5571ZM5.82045 42.1163C6.74322 44.435 8.5296 46.2214 10.8602 47.156C14.3501 48.5401 22.6314 48.2207 26.4881 48.2207C30.3448 48.2207 38.6379 48.5283 42.116 47.156C44.4347 46.2332 46.2211 44.4468 47.1557 42.1163C48.5399 38.6263 48.2205 30.3451 48.2205 26.4884C48.2205 22.6317 48.528 14.3386 47.1557 10.8605C46.233 8.54171 44.4466 6.75533 42.116 5.82073C38.626 4.43658 30.3448 4.756 26.4881 4.756C22.6314 4.756 14.3383 4.44841 10.8602 5.82073C8.54143 6.7435 6.75505 8.52988 5.82045 10.8605C4.4363 14.3504 4.75572 22.6317 4.75572 26.4884C4.75572 30.3451 4.4363 38.6381 5.82045 42.1163Z" fill="white"/>
</g>
<defs>
<clipPath id="clip0_296_774">
<rect width="53" height="53" fill="white" transform="matrix(-1 0 0 1 53 0)"/>
</clipPath>
</defs>
</svg>
