<svg width="53" height="54" viewBox="0 0 53 54" fill="none" xmlns="http://www.w3.org/2000/svg">
<g clip-path="url(#clip0_74_75)">
<path d="M26.4871 13.2847C34.0112 13.2847 40.0802 19.3537 40.0802 26.8778C40.0802 34.4019 34.0112 40.4708 26.4871 40.4708C18.963 40.4708 12.894 34.4019 12.894 26.8778C12.894 19.3537 18.963 13.2847 26.4871 13.2847ZM26.4871 35.715C31.3494 35.715 35.3244 31.7519 35.3244 26.8778C35.3244 22.0037 31.3612 18.0405 26.4871 18.0405C21.613 18.0405 17.6498 22.0037 17.6498 26.8778C17.6498 31.7519 21.6248 35.715 26.4871 35.715ZM9.16747 12.7287C9.16747 14.4914 10.5871 15.8992 12.338 15.8992C14.1007 15.8992 15.5085 14.4796 15.5085 12.7287C15.5085 10.9778 14.0889 9.55813 12.338 9.55813C10.5871 9.55813 9.16747 10.9778 9.16747 12.7287ZM0.164566 15.9465C0.365681 11.6994 1.33577 7.93737 4.44715 4.83781C7.54671 1.73826 11.3088 0.768171 15.5559 0.555225C19.9331 0.306787 33.053 0.306787 37.4302 0.555225C41.6655 0.756341 45.4275 1.72643 48.5389 4.82598C51.6503 7.92554 52.6085 11.6876 52.8215 15.9347C53.0699 20.3119 53.0699 33.4318 52.8215 37.809C52.6204 42.0561 51.6503 45.8182 48.5389 48.9177C45.4275 52.0173 41.6773 52.9874 37.4302 53.2003C33.053 53.4487 19.9331 53.4487 15.5559 53.2003C11.3088 52.9992 7.54671 52.0291 4.44715 48.9177C1.3476 45.8182 0.37751 42.0561 0.164566 37.809C-0.0838737 33.4318 -0.0838737 20.3238 0.164566 15.9465ZM5.81948 42.5057C6.74224 44.8244 8.52863 46.6108 10.8592 47.5454C14.3492 48.9296 22.6304 48.6101 26.4871 48.6101C30.3438 48.6101 38.6369 48.9177 42.115 47.5454C44.4338 46.6226 46.2201 44.8363 47.1547 42.5057C48.5389 39.0157 48.2195 30.7345 48.2195 26.8778C48.2195 23.0211 48.5271 14.728 47.1547 11.2499C46.232 8.93112 44.4456 7.14473 42.115 6.21013C38.6251 4.82598 30.3438 5.1454 26.4871 5.1454C22.6304 5.1454 14.3373 4.83781 10.8592 6.21013C8.54045 7.1329 6.75407 8.91929 5.81948 11.2499C4.43533 14.7398 4.75475 23.0211 4.75475 26.8778C4.75475 30.7345 4.43533 39.0275 5.81948 42.5057Z" fill="black"/>
</g>
<defs>
<clipPath id="clip0_74_75">
<rect width="53" height="53" fill="white" transform="matrix(-1 0 0 1 53 0.389648)"/>
</clipPath>
</defs>
</svg>
