<svg width="46" height="53" viewBox="0 0 46 53" fill="none" xmlns="http://www.w3.org/2000/svg">
<path d="M34.0371 24.3279C34.263 24.4193 34.4684 24.5209 34.684 24.6123C37.6822 26.0443 39.8795 28.1873 41.0295 30.8482C42.6416 34.5553 42.7956 40.5779 37.9184 45.392C34.2014 49.0686 29.6733 50.724 23.2764 50.7748H23.2456C16.0376 50.724 10.5032 48.3271 6.77595 43.6451C3.45943 39.4811 1.75497 33.6818 1.69336 26.4201V26.3896V26.3693C1.7447 19.1076 3.44916 13.3084 6.76568 9.14434C10.4929 4.4623 16.0376 2.06543 23.2456 2.01465H23.2764C30.4947 2.06543 36.1009 4.45215 39.9411 9.11387C41.8304 11.4193 43.2268 14.192 44.1099 17.4115L39.9617 18.5084C39.2326 15.8881 38.134 13.6537 36.6554 11.8662C33.6572 8.23027 29.1599 6.36152 23.2559 6.3209C17.4032 6.37168 12.9777 8.23027 10.0925 11.8459C7.40229 15.2279 6.00586 20.1232 5.95452 26.3896C6.00586 32.6561 7.40229 37.5514 10.0925 40.9436C12.9675 44.5592 17.4032 46.4178 23.2559 46.4686C28.5335 46.4279 32.0246 45.1889 34.9304 42.3146C38.2469 39.0443 38.1853 35.0225 37.1277 32.5748C36.5014 31.1326 35.3719 29.9342 33.8523 29.0303C33.4724 31.7623 32.6407 33.9357 31.3161 35.6115C29.5603 37.8256 27.0652 39.024 23.8514 39.1967C21.4282 39.3287 19.0974 38.7498 17.2902 37.5717C15.1545 36.1701 13.9018 34.0373 13.7684 31.549C13.5117 26.6436 17.434 23.1193 23.5434 22.774C25.7099 22.6521 27.7429 22.7436 29.6219 23.0584C29.3755 21.5553 28.8724 20.3568 28.1228 19.4834C27.096 18.2951 25.4943 17.6857 23.3791 17.6756H23.3072C21.6027 17.6756 19.3027 18.1428 17.8344 20.3467L14.3023 17.9498C16.2737 14.9943 19.467 13.3693 23.3175 13.3693H23.3996C29.8273 13.41 33.6572 17.3811 34.0474 24.3076L34.0268 24.3279H34.0371ZM18.0193 31.3154C18.1527 33.8646 20.9353 35.0529 23.6255 34.9006C26.2541 34.7584 29.2318 33.7428 29.7349 27.4662C28.3795 27.1717 26.8804 27.0193 25.2786 27.0193C24.7858 27.0193 24.2929 27.0295 23.8001 27.06C19.3951 27.3037 17.9268 29.4162 18.0295 31.3053L18.0193 31.3154Z" fill="black"/>
</svg>
