<svg width="44" height="50" viewBox="0 0 44 50" fill="none" xmlns="http://www.w3.org/2000/svg">
<path d="M33.0381 22.9383C33.264 23.0297 33.4693 23.1312 33.685 23.2227C36.6832 24.6547 38.8805 26.7977 40.0305 29.4586C41.6426 33.1656 41.7966 39.1883 36.9193 44.0023C33.2024 47.6789 28.6742 49.3344 22.2774 49.3852H22.2466C15.0385 49.3344 9.50416 46.9375 5.77693 42.2555C2.46041 38.0914 0.755943 32.2922 0.694336 25.0305V25V24.9797C0.745675 17.718 2.45014 11.9187 5.76666 7.75469C9.49389 3.07266 15.0385 0.675781 22.2466 0.625H22.2774C29.4957 0.675781 35.1019 3.0625 38.9421 7.72422C40.8314 10.0297 42.2278 12.8023 43.1109 16.0219L38.9626 17.1187C38.2336 14.4984 37.135 12.2641 35.6564 10.4766C32.6582 6.84062 28.1609 4.97187 22.2568 4.93125C16.4042 4.98203 11.9787 6.84062 9.09344 10.4562C6.40326 13.8383 5.00684 18.7336 4.9555 25C5.00684 31.2664 6.40326 36.1617 9.09344 39.5539C11.9684 43.1695 16.4042 45.0281 22.2568 45.0789C27.5345 45.0383 31.0256 43.7992 33.9314 40.925C37.2479 37.6547 37.1863 33.6328 36.1287 31.1852C35.5024 29.743 34.3729 28.5445 32.8533 27.6406C32.4734 30.3727 31.6417 32.5461 30.3171 34.2219C28.5613 36.4359 26.0662 37.6344 22.8524 37.807C20.4292 37.9391 18.0984 37.3602 16.2912 36.182C14.1555 34.7805 12.9028 32.6477 12.7693 30.1594C12.5126 25.2539 16.435 21.7297 22.5443 21.3844C24.7109 21.2625 26.7439 21.3539 28.6229 21.6687C28.3765 20.1656 27.8734 18.9672 27.1238 18.0937C26.097 16.9055 24.4952 16.2961 22.3801 16.2859H22.3082C20.6037 16.2859 18.3037 16.7531 16.8354 18.957L13.3033 16.5602C15.2747 13.6047 18.468 11.9797 22.3184 11.9797H22.4006C28.8283 12.0203 32.6582 15.9914 33.0484 22.918L33.0278 22.9383H33.0381ZM17.0202 29.9258C17.1537 32.475 19.9363 33.6633 22.6265 33.5109C25.2551 33.3687 28.2327 32.3531 28.7359 26.0766C27.3805 25.782 25.8814 25.6297 24.2796 25.6297C23.7867 25.6297 23.2939 25.6398 22.801 25.6703C18.3961 25.9141 16.9278 28.0266 17.0305 29.9156L17.0202 29.9258Z" fill="white"/>
</svg>
